<?xml version="1.0" encoding="UTF-8" standalone="no"?>
<!-- Created with Inkscape (http://www.inkscape.org/) -->

<svg
   xmlns:dc="http://purl.org/dc/elements/1.1/"
   xmlns:cc="http://creativecommons.org/ns#"
   xmlns:rdf="http://www.w3.org/1999/02/22-rdf-syntax-ns#"
   xmlns:svg="http://www.w3.org/2000/svg"
   xmlns="http://www.w3.org/2000/svg"
   xmlns:sodipodi="http://sodipodi.sourceforge.net/DTD/sodipodi-0.dtd"
   xmlns:inkscape="http://www.inkscape.org/namespaces/inkscape"
   width="14mm"
   height="14mm"
   viewBox="0 0 14 14"
   version="1.1"
   id="svg4776"
   inkscape:version="0.92.2 2405546, 2018-03-11"
   sodipodi:docname="favicon.svg">
  <defs
     id="defs4770" />
  <sodipodi:namedview
     id="base"
     pagecolor="#ffffff"
     bordercolor="#666666"
     borderopacity="1.0"
     inkscape:pageopacity="0.0"
     inkscape:pageshadow="2"
     inkscape:zoom="5.6"
     inkscape:cx="47.378267"
     inkscape:cy="8.224057"
     inkscape:document-units="mm"
     inkscape:current-layer="layer1"
     showgrid="false"
     fit-margin-top="0"
     fit-margin-left="0"
     fit-margin-right="0"
     fit-margin-bottom="0"
     inkscape:window-width="1600"
     inkscape:window-height="866"
     inkscape:window-x="0"
     inkscape:window-y="34"
     inkscape:window-maximized="0" />
  <metadata
     id="metadata4773">
    <rdf:RDF>
      <cc:Work
         rdf:about="">
        <dc:format>image/svg+xml</dc:format>
        <dc:type
           rdf:resource="http://purl.org/dc/dcmitype/StillImage" />
        <dc:title></dc:title>
      </cc:Work>
    </rdf:RDF>
  </metadata>
  <g
     inkscape:label="Layer 1"
     inkscape:groupmode="layer"
     id="layer1"
     transform="translate(104.15865,-130.19467)">
    <path
       style="font-style:normal;font-variant:normal;font-weight:bold;font-stretch:normal;font-size:32.5px;line-height:125%;font-family:Cambria;-inkscape-font-specification:'Cambria, Bold';font-variant-ligatures:normal;font-variant-caps:normal;font-variant-numeric:normal;font-feature-settings:normal;text-align:start;letter-spacing:0px;word-spacing:0px;writing-mode:lr-tb;text-anchor:start;fill:#40494a;fill-opacity:1;stroke:#40494a;stroke-width:0.26500002;stroke-linecap:butt;stroke-linejoin:miter;stroke-miterlimit:4;stroke-dasharray:none;stroke-opacity:1"
       d="m -95.303788,131.41572 -1.785937,0.54622 0.0863,0.28267 c 0.14911,-0.0331 0.270079,-0.0248 0.363285,0.0248 0.09519,0.0458 0.165964,0.14298 0.211359,0.29145 0.02881,0.0942 0.04902,0.21261 0.06149,0.35554 0.0116,0.14007 0.01789,0.28224 0.01809,0.42581 l -0.01758,3.17552 -2.337842,-4.06229 -0.967901,0.29611 0.106455,4.74441 -1.651061,-2.75022 c -0.18057,-0.29447 -0.29376,-0.51736 -0.34003,-0.66869 -0.0367,-0.11992 -0.0296,-0.2236 0.0217,-0.31109 0.0513,-0.0875 0.14873,-0.16227 0.29197,-0.2248 l -0.0863,-0.28266 -2.30425,0.70434 0.0863,0.28267 c 0.0984,-0.005 0.18445,0.006 0.25838,0.0336 0.0739,0.0274 0.14935,0.079 0.22583,0.15555 0.0765,0.0765 0.18186,0.22225 0.31625,0.43718 l 2.755386,4.40283 1.070737,-0.32762 -0.08165,-4.37235 2.1978,3.72588 1.019059,-0.31161 0.171049,-5.18522 c 0.0097,-0.2746 0.02687,-0.47376 0.05167,-0.59686 0.02481,-0.1231 0.06442,-0.22389 0.118339,-0.30283 0.05305,-0.0818 0.128713,-0.15053 0.227378,-0.20567 z m 2.248958,3.0949 -2.312521,0.70693 0.275955,0.90279 c 0.212445,-0.0121 0.43966,-0.0148 0.682128,-0.007 0.24686,0.006 0.451761,0.04 0.614431,0.10077 0.164017,0.0651 0.298086,0.15832 0.402559,0.28009 0.104476,0.12176 0.196924,0.31469 0.277504,0.57826 l 0.163296,0.53382 -6.569106,2.00814 c -0.21085,0.0645 -0.39103,0.11254 -0.540016,0.14366 -0.1446,0.0298 -0.27094,0.0323 -0.3793,0.008 -0.10837,-0.0245 -0.20569,-0.0835 -0.29198,-0.17725 -0.0806,-0.0907 -0.1645,-0.22384 -0.25166,-0.39894 l -0.4346,0.13333 1.11208,3.63699 0.434596,-0.13281 c -0.025,-0.16047 -0.0338,-0.29234 -0.0269,-0.39533 0.0127,-0.0999 0.0327,-0.18293 0.0605,-0.24908 0.0336,-0.0631 0.0823,-0.12341 0.14625,-0.18138 0.06393,-0.058 0.153102,-0.1118 0.267678,-0.16123 0.118974,-0.0508 0.294804,-0.11176 0.527617,-0.18294 l 6.569626,-2.00866 0.145209,0.47439 c 0.05507,0.1801 0.08813,0.3284 0.09974,0.44493 0.01727,0.11959 0.01775,0.22278 0.0011,0.30955 -0.01671,0.0868 -0.04779,0.17338 -0.09353,0.25941 -0.04575,0.086 -0.110727,0.17297 -0.194301,0.26097 -0.07784,0.091 -0.179615,0.18207 -0.30541,0.27337 -0.125795,0.0913 -0.325224,0.22467 -0.598412,0.39946 l 0.275954,0.90278 2.313037,-0.70745 z"
       id="path4580"
       inkscape:export-filename="/home/egorov/bitmap.png"
       inkscape:export-xdpi="261.45001"
       inkscape:export-ydpi="261.45001"
       inkscape:connector-curvature="0" />
  </g>
</svg>
