<svg xmlns="http://www.w3.org/2000/svg" class="wt-logo width-125 height-125" viewBox="0 0 16.933333 16.933333">
    <g>
        <path class="wt-logo-line" d="M.53 14.544h15.874"/>
        <path class="wt-logo-symb" d="M10.322 2.256l-1.786.546.086.283c.149-.033.27-.025.363.025.095.046.166.143.212.291.028.094.049.213.061.356.012.14.018.282.018.426L9.26 7.358 6.92 3.296l-.968.296.106 4.744-1.65-2.75c-.181-.294-.295-.517-.34-.669a.376.376 0 0 1 .02-.31c.052-.088.15-.163.293-.225l-.086-.283-2.305.704.087.283a.643.643 0 0 1 .258.033c.074.028.15.08.226.156.076.076.182.222.316.437l2.755 4.403 1.071-.328-.081-4.372L8.82 9.141l1.02-.312.17-5.185c.01-.275.027-.474.052-.597a.82.82 0 0 1 .119-.303.631.631 0 0 1 .227-.205zm2.249 3.095l-2.313.707.276.903c.212-.012.44-.015.682-.007.247.006.452.04.615.1.164.066.298.159.402.28.105.122.197.315.278.579l.163.534-6.57 2.008c-.21.064-.39.112-.54.143a.905.905 0 0 1-.379.008.564.564 0 0 1-.292-.177 1.864 1.864 0 0 1-.251-.399l-.435.134L5.32 13.8l.435-.133a1.856 1.856 0 0 1-.027-.396.965.965 0 0 1 .06-.249.676.676 0 0 1 .147-.181.97.97 0 0 1 .267-.161c.12-.051.295-.112.528-.183l6.57-2.009.145.475a2.4 2.4 0 0 1 .1.444.94.94 0 0 1 0 .31.925.925 0 0 1-.093.26 1.21 1.21 0 0 1-.194.26 1.76 1.76 0 0 1-.306.274 13.49 13.49 0 0 1-.598.4l.276.902 2.313-.707z"/>
    </g>
</svg>
